<?xml version="1.0" encoding="utf-8"?>
<!-- Generator: Adobe Illustrator 24.2.3, SVG Export Plug-In . SVG Version: 6.00 Build 0)  -->
<svg version="1.1" id="Penguin" xmlns="http://www.w3.org/2000/svg" xmlns:xlink="http://www.w3.org/1999/xlink" x="0px" y="0px"
	 viewBox="0 0 53.9 43.6" style="enable-background:new 0 0 53.9 43.6;" xml:space="preserve">
<style type="text/css">
	.st0{fill-rule:evenodd;clip-rule:evenodd;fill:url(#SVGID_1_);}
</style>
<g>
	
		<linearGradient id="SVGID_1_" gradientUnits="userSpaceOnUse" x1="4.1405" y1="24.65" x2="49.7334" y2="24.65" gradientTransform="matrix(1 0 0 -1 0 46)">
		<stop  offset="0" style="stop-color:#6AF4FF"/>
		<stop  offset="1" style="stop-color:#B0AAFF"/>
	</linearGradient>
	<path class="st0" d="M27,0.5c12.1,0,25.6,15.9,22.2,27.9c-2.6,9-11.5,13.8-22.2,13.8C15.9,42.2,6.6,37,4.5,27.3
		C1.8,15.2,14.8,0.5,27,0.5z M41,23.7c2.1,0,2.1,3.7,0,3.7C39.1,27.4,39.1,23.7,41,23.7z M12.7,23.7c2.1,0,2.1,3.7,0,3.7
		S10.7,23.7,12.7,23.7z M20,29.6c4.5,1.5,9,1.6,13.4,0c0.5-0.2,0.8,0.7,0.3,0.9c-4.6,1.7-9.3,1.6-14,0C19.2,30.3,19.4,29.5,20,29.6
		L20,29.6z M26.9,24.2c4.6,0,8.3,2.3,8.3,5.1s-3.7,5.1-8.3,5.1s-8.3-2.3-8.3-5.1S22.4,24.2,26.9,24.2z M27,40.2
		c8.5,0,17.8-3.4,20.4-12.4c1.3-4.4-0.1-9.3-2.8-13.7c-3.1-1.8-6-0.2-6.9,2c-1.5,3.6-2.9,6.3-4.5,8.2c6.9,3.8,3,11.4-6.1,11.4
		s-13-7.6-6.1-11.4c-1.8-2-3-4.6-4.5-8.2c-1-2.4-4-3.9-7.2-1.8c-2.4,4-3.6,8.5-2.6,12.7C8.5,36.4,18,40.2,27,40.2L27,40.2z"/>
</g>
</svg>
