<?xml version="1.0" encoding="UTF-8" standalone="no"?>
<!DOCTYPE svg PUBLIC "-//W3C//DTD SVG 1.1//EN" "http://www.w3.org/Graphics/SVG/1.1/DTD/svg11.dtd">
<svg  version="1.1" id="Penguin" xmlns="http://www.w3.org/2000/svg" xmlns:xlink="http://www.w3.org/1999/xlink" viewBox="0 0 45.59 41.7"><defs><style>.cls-1{fill-rule:evenodd;fill:url(#Gradient01);}</style><linearGradient id="Gradient01" x1="4.14" y1="24.65" x2="49.73" y2="24.65" gradientTransform="matrix(1, 0, 0, -1, 0, 46)" gradientUnits="userSpaceOnUse"><stop offset="0" stop-color="#6af4ff"/><stop offset="1" stop-color="#b0aaff"/></linearGradient></defs><path class="cls-1" d="M27,.5C39.1.5,52.6,16.4,49.2,28.4c-2.6,9-11.5,13.8-22.2,13.8C15.9,42.2,6.6,37,4.5,27.3,1.8,15.2,14.8.5,27,.5ZM41,23.7c2.1,0,2.1,3.7,0,3.7C39.1,27.4,39.1,23.7,41,23.7Zm-28.3,0c2.1,0,2.1,3.7,0,3.7S10.7,23.7,12.7,23.7ZM20,29.6a19.89,19.89,0,0,0,13.4,0c.5-.2.8.7.3.9a20.42,20.42,0,0,1-14,0,.48.48,0,0,1,.3-.9Zm6.9-5.4c4.6,0,8.3,2.3,8.3,5.1s-3.7,5.1-8.3,5.1-8.3-2.3-8.3-5.1S22.4,24.2,26.9,24.2Zm.1,16c8.5,0,17.8-3.4,20.4-12.4,1.3-4.4-.1-9.3-2.8-13.7a4.67,4.67,0,0,0-6.9,2,32,32,0,0,1-4.5,8.2c6.9,3.8,3,11.4-6.1,11.4s-13-7.6-6.1-11.4c-1.8-2-3-4.6-4.5-8.2-1-2.4-4-3.9-7.2-1.8-2.4,4-3.6,8.5-2.6,12.7C8.5,36.4,18,40.2,27,40.2Z" transform="translate(-4.14 -0.5)"/></svg>